<svg width="165" height="56" viewBox="0 0 165 56" fill="none" xmlns="http://www.w3.org/2000/svg">
<path fill-rule="evenodd" clip-rule="evenodd" d="M1.69562 13.4923L162.792 4.35416L162.79 43.5679L1.69371 43.5791L1.69562 13.4923Z" fill="black"/>
<path fill-rule="evenodd" clip-rule="evenodd" d="M21.627 9.76708L145.433 0L150.05 55.1221L14.4324 48.7952L21.627 9.76708Z" fill="#E3000F"/>
<path fill-rule="evenodd" clip-rule="evenodd" d="M102.783 23.0314C101.997 22.9743 101.306 23.5719 101.249 24.3598L100.432 35.6674C100.375 36.455 100.972 37.1462 101.759 37.2032C102.545 37.2603 103.236 36.6624 103.293 35.8745L104.11 24.5672C104.167 23.7796 103.57 23.0882 102.783 23.0314ZM134.166 30.3002L126.914 30.2634C126.078 30.2589 125.618 30.8156 125.446 31.1284L123.279 35.0716C122.899 35.7636 123.135 36.6397 123.821 37.0287C124.508 37.4175 125.4 37.1805 125.776 36.4858L127.587 33.1357L135.557 33.18C135.635 33.1803 135.711 33.1743 135.786 33.1626L137.666 36.4858C138.055 37.1731 138.934 37.4175 139.621 37.0284C140.308 36.64 140.552 35.7589 140.163 35.0716L133.409 23.1363C133.02 22.4493 132.141 22.2046 131.454 22.5934C130.767 22.9824 130.523 23.8632 130.912 24.5505L134.166 30.3002ZM119.823 22.9597L110.318 22.9149C107.633 22.9026 105.815 24.9757 105.63 27.4568L105.189 33.3634C104.975 36.2381 107.874 36.8982 110.087 36.9098L118.507 36.9543C119.457 36.9591 122.119 36.5874 122.272 34.7418L122.373 33.5185C122.438 32.7312 121.833 32.0395 121.046 31.9824C120.259 31.9253 119.576 32.5241 119.512 33.3111C119.467 33.8636 119.444 33.8451 119.427 33.9362C119.392 34.1233 119.198 34.0859 118.518 34.0823L110.098 34.0378C108.574 34.0297 108.091 33.82 108.098 32.9335L108.491 27.6642C108.595 26.2661 109.012 25.7809 110.307 25.7869L119.812 25.8314C120.037 25.8326 120.103 25.8419 120.138 25.9016C120.182 25.9784 120.154 26.1344 120.128 26.4141C120.054 27.2002 120.668 27.8928 121.454 27.9499C122.241 28.0069 122.924 27.4084 122.989 26.6214L123.09 25.3982C123.216 23.8683 122.041 22.9698 119.823 22.9597ZM77.5477 22.9597L68.0427 22.9149C65.3578 22.9026 63.5395 24.9757 63.3547 27.4568L62.9142 33.3634C62.7 36.2381 65.5989 36.8982 67.8115 36.9098L76.2316 36.9543C77.1818 36.9591 79.8441 36.5874 79.9966 34.7418L80.0975 33.5185C80.1626 32.7312 79.5576 32.0395 78.7707 31.9824C77.9837 31.9253 77.3009 32.5241 77.2365 33.3111C77.1914 33.8636 77.1684 33.8451 77.1517 33.9362C77.1168 34.1233 76.9231 34.0859 76.243 34.0823L67.8228 34.0378C66.2993 34.0297 65.8162 33.82 65.8227 32.9335L66.2158 27.6642C66.3199 26.2661 66.7371 25.7809 68.0314 25.7869L77.5367 25.8314C77.7614 25.8326 77.8282 25.8419 77.8629 25.9016C77.907 25.9784 77.8784 26.1344 77.8524 26.4141C77.7793 27.2002 78.3926 27.8928 79.1792 27.9499C79.9662 28.0069 80.6484 27.4084 80.7135 26.6214L80.8143 25.3982C80.9406 23.8683 79.7662 22.9698 77.5477 22.9597ZM61.5078 29.6918C61.5107 28.9018 60.8676 28.2528 60.0789 28.2501L47.4726 28.2056C46.9787 28.2038 46.5397 28.4554 46.2801 28.8379C46.096 29.0602 45.9766 29.3392 45.9545 29.6476L45.5519 35.2897C45.5113 35.8575 45.8101 36.375 46.2747 36.6412C46.5051 36.8014 46.7839 36.8961 47.0841 36.8973L60.3698 36.9418C61.1586 36.9445 61.8065 36.3012 61.8095 35.5115C61.8127 34.7214 61.1696 34.0725 60.3809 34.0698L48.5174 34.03L48.7278 31.0818L60.0678 31.1222C60.8566 31.1248 61.5045 30.4815 61.5078 29.6918ZM33.285 23.0846L32.4175 35.6674C32.3632 36.455 32.9576 37.1462 33.7443 37.2032C34.5309 37.2603 35.2239 36.6624 35.2782 35.8745L36.1598 23.0915L44.2153 23.1106C45.0043 23.1124 45.6522 22.47 45.6552 21.6802C45.6585 20.8902 45.0154 20.2404 44.2266 20.2386L25.5058 20.194C24.7168 20.1922 24.0689 20.8344 24.0659 21.6244C24.0629 22.4141 24.7055 23.0643 25.4945 23.066L33.285 23.0846ZM62.942 24.4011C62.945 23.6114 62.3022 22.9621 61.5134 22.9594L47.8119 22.9149C47.0232 22.9125 46.3753 23.5555 46.372 24.3452C46.369 25.1349 47.0119 25.7842 47.8009 25.7869L61.5021 25.8314C62.2908 25.8341 62.9387 25.1908 62.942 24.4011ZM98.5562 23.0314C97.7693 22.9743 97.079 23.5719 97.022 24.3598L96.3968 33.0082L85.0034 23.4754C84.8586 23.3544 84.696 23.2701 84.5253 23.2208C84.3433 23.1148 84.1349 23.0475 83.9114 23.0314C83.1248 22.9743 82.4345 23.5719 82.3775 24.3598L81.5598 35.6674C81.5028 36.455 82.1 37.1462 82.8866 37.2032C83.6736 37.2603 84.3638 36.6624 84.4208 35.8745L85.0446 27.2498L96.5905 36.9101C96.8895 37.1605 97.2664 37.2528 97.6293 37.2068C98.3748 37.2098 99.0107 36.6295 99.0654 35.8745L99.8831 24.5672C99.9401 23.7796 99.3429 23.0882 98.5562 23.0314Z" fill="white"/>
<path fill-rule="evenodd" clip-rule="evenodd" d="M66.5851 44.6101H64.1024C63.7351 44.6101 63.4617 44.5276 63.2821 44.3627C63.1027 44.1977 63.0466 43.9787 63.114 43.7056L63.4951 42.1636C63.659 41.4999 64.1985 41.168 65.1135 41.168H66.2153C66.5824 41.168 66.8501 41.2451 67.0181 41.3989C67.1864 41.5531 67.2359 41.7688 67.1673 42.0464L67.0661 42.4564L63.9028 43.4974L63.8738 43.6145C63.8342 43.775 63.8464 43.8855 63.9103 43.9462C63.9744 44.0071 64.0998 44.0373 64.2863 44.0373H66.7265L66.5851 44.6101ZM66.4192 42.0921C66.4436 41.992 66.4347 41.9141 66.3923 41.8576C66.3323 41.7796 66.2177 41.7408 66.0485 41.7408H64.8452C64.5062 41.7408 64.3009 41.886 64.2287 42.1776L64.0595 42.8684L66.4192 42.0921ZM71.3271 41.7408H69.0802C69.0125 41.7408 68.9391 41.7635 68.8573 41.8089C68.7752 41.8546 68.7248 41.9162 68.7054 41.9944L68.6445 42.2415C68.6284 42.3067 68.6505 42.3706 68.7114 42.4337C68.772 42.4964 68.8591 42.5278 68.9719 42.5278H70.0734C70.3727 42.5278 70.6055 42.604 70.7714 42.7555C70.9374 42.9076 70.9929 43.094 70.9383 43.3151L70.8049 43.8553C70.7574 44.046 70.6243 44.2196 70.4065 44.3758C70.1886 44.5318 69.9433 44.6101 69.6735 44.6101H67.3222L67.4637 44.0373H69.7105C69.7953 44.0373 69.8741 44.0104 69.9451 43.956C70.0179 43.9019 70.0692 43.8141 70.0994 43.6925L70.1635 43.4322C70.2173 43.2153 70.1 43.1068 69.8117 43.1068H68.812C68.4503 43.1068 68.1867 43.031 68.0208 42.8792C67.8734 42.7447 67.8233 42.5822 67.8701 42.3912L67.9796 41.9487C68.0405 41.7016 68.1742 41.5095 68.3804 41.3729C68.5848 41.2364 68.8433 41.168 69.1525 41.168H71.4686L71.3271 41.7408ZM74.4567 44.6101H72.7703C72.3695 44.6101 72.0824 44.5252 71.9097 44.3561C71.7366 44.187 71.6802 43.9811 71.7401 43.7382L72.1615 42.0333C72.2278 41.7644 72.3889 41.5531 72.6444 41.3989C72.8998 41.2451 73.2198 41.168 73.6038 41.168H75.2986L75.1572 41.7408H73.4624C73.3663 41.7408 73.26 41.7709 73.1434 41.8316C72.9941 41.9099 72.9061 42.0031 72.8792 42.1116L72.5095 43.6079C72.4797 43.7292 72.5053 43.8314 72.5865 43.9139C72.668 43.9961 72.7793 44.0373 72.9204 44.0373H74.5982L74.4567 44.6101ZM79.2242 43.7642C79.1642 44.0071 79.0072 44.2088 78.7526 44.3693C78.4984 44.5297 78.1904 44.6101 77.829 44.6101H76.4732C76.1175 44.6101 75.8501 44.5309 75.6719 44.3725C75.4935 44.2142 75.435 44.0113 75.4959 43.7642L75.9396 41.9684C76.0038 41.7082 76.1503 41.5095 76.3789 41.3729C76.6078 41.2364 76.9224 41.168 77.3235 41.168H78.6792C79.0352 41.168 79.3038 41.2406 79.4856 41.3861C79.667 41.5313 79.7279 41.7255 79.6679 41.9684L79.2242 43.7642ZM78.5187 43.6014L78.8756 42.157C78.9442 41.8794 78.806 41.7408 78.4617 41.7408H77.2667C76.911 41.7408 76.6988 41.8794 76.6302 42.157L76.2799 43.5754C76.2035 43.8834 76.3434 44.0373 76.6994 44.0373H77.8943C78.2387 44.0373 78.447 43.8921 78.5187 43.6014ZM80.7861 44.6101H80.049L81.1836 40.0164H81.9211L80.7861 44.6101ZM85.7481 43.7316C85.6869 43.9787 85.5255 44.187 85.2635 44.3561C85.0011 44.5252 84.7317 44.6101 84.455 44.6101H82.9721C82.6785 44.6101 82.437 44.5178 82.2484 44.3334C82.0592 44.149 81.9957 43.9333 82.0565 43.6859L82.1595 43.2697C82.2443 42.927 82.4096 42.6634 82.6555 42.4791C82.9017 42.2947 83.2028 42.2024 83.5585 42.2024H85.3801L85.4366 41.9747C85.4527 41.9099 85.4416 41.8567 85.404 41.8155C85.3661 41.7742 85.3029 41.7494 85.2148 41.7408H82.5373L82.6788 41.168H85.3139C85.6416 41.168 85.8848 41.2352 86.0436 41.3697C86.2023 41.5041 86.2501 41.6995 86.1871 41.9553L85.7481 43.7316ZM85.0104 43.6991L85.1471 43.146C85.2083 42.8989 85.0411 42.7752 84.6457 42.7752H83.6203C83.2192 42.7752 82.9882 42.8989 82.9271 43.146L82.7904 43.6991C82.7605 43.8204 82.7856 43.9073 82.8662 43.9593C82.9465 44.0113 83.0966 44.0373 83.3171 44.0373H84.3252C84.5457 44.0373 84.7075 44.0113 84.8107 43.9593C84.914 43.9073 84.9805 43.8204 85.0104 43.6991ZM97.1353 43.6405C97.0613 43.9399 96.8953 44.1762 96.6378 44.3498C96.3802 44.5231 96.0961 44.6101 95.7855 44.6101H94.3283C94.0513 44.6101 93.8227 44.5297 93.6422 44.3693C93.4476 44.1957 93.3831 43.9766 93.4485 43.7119L93.8633 42.0333C93.9361 41.7384 94.0901 41.5205 94.3256 41.3795C94.561 41.2385 94.8792 41.168 95.2802 41.168H97.0004L97.2848 40.0164H98.0306L97.1353 43.6405ZM96.3928 43.6274L96.7673 42.1116C96.7984 41.9858 96.7763 41.8925 96.7008 41.8316C96.6253 41.7709 96.5169 41.7408 96.3758 41.7408H95.1642C94.8365 41.7408 94.6413 41.8686 94.5777 42.1244L94.1954 43.6731C94.1686 43.7815 94.1907 43.8694 94.2617 43.9366C94.3324 44.0038 94.416 44.0373 94.5121 44.0373H95.8085C95.9326 44.0373 96.0538 43.9993 96.1713 43.9235C96.2889 43.8476 96.3626 43.749 96.3928 43.6274ZM101.624 44.6101H99.141C98.7739 44.6101 98.5003 44.5276 98.3209 44.3627C98.1413 44.1977 98.0852 43.9787 98.1526 43.7056L98.5337 42.1636C98.6975 41.4999 99.2371 41.168 100.152 41.168H101.254C101.621 41.168 101.889 41.2451 102.057 41.3989C102.225 41.5531 102.275 41.7688 102.206 42.0464L102.105 42.4564L98.9414 43.4974L98.9124 43.6145C98.8727 43.775 98.885 43.8855 98.9491 43.9462C99.013 44.0071 99.1383 44.0373 99.3248 44.0373H101.765L101.624 44.6101ZM101.458 42.0921C101.482 41.992 101.474 41.9141 101.431 41.8576C101.371 41.7796 101.256 41.7408 101.087 41.7408H99.8838C99.5448 41.7408 99.3395 41.886 99.2673 42.1776L99.098 42.8684L101.458 42.0921ZM107.818 44.6101H106.131C105.73 44.6101 105.444 44.5252 105.27 44.3561C105.098 44.187 105.041 43.9811 105.101 43.7382L105.522 42.0333C105.589 41.7644 105.75 41.5531 106.005 41.3989C106.261 41.2451 106.581 41.168 106.965 41.168H108.659L108.518 41.7408H106.823C106.727 41.7408 106.621 41.7709 106.504 41.8316C106.355 41.9099 106.267 42.0031 106.24 42.1116L105.871 43.6079C105.84 43.7292 105.866 43.8314 105.948 43.9139C106.029 43.9961 106.14 44.0373 106.281 44.0373H107.959L107.818 44.6101ZM112.585 43.7642C112.525 44.0071 112.368 44.2088 112.114 44.3693C111.859 44.5297 111.551 44.6101 111.19 44.6101H109.834C109.478 44.6101 109.211 44.5309 109.033 44.3725C108.855 44.2142 108.796 44.0113 108.857 43.7642L109.3 41.9684C109.365 41.7082 109.511 41.5095 109.74 41.3729C109.969 41.2364 110.283 41.168 110.685 41.168H112.04C112.396 41.168 112.665 41.2406 112.846 41.3861C113.028 41.5313 113.089 41.7255 113.029 41.9684L112.585 43.7642ZM111.88 43.6014L112.237 42.157C112.305 41.8794 112.167 41.7408 111.822 41.7408H110.628C110.272 41.7408 110.06 41.8794 109.991 42.157L109.641 43.5754C109.565 43.8834 109.705 44.0373 110.06 44.0373H111.255C111.6 44.0373 111.808 43.8921 111.88 43.6014ZM117.079 44.6101H116.333L116.947 42.1244C116.977 42.0031 116.962 41.9108 116.901 41.848C116.841 41.785 116.72 41.7536 116.539 41.7536H115.37C115.172 41.7536 115.03 41.7796 114.943 41.8316C114.857 41.8839 114.796 41.9813 114.761 42.1244L114.147 44.6101H113.41L114.042 42.053C114.188 41.4632 114.678 41.168 115.514 41.168H116.675C117.511 41.168 117.856 41.4632 117.71 42.053L117.079 44.6101ZM122.021 43.6405C121.947 43.9399 121.781 44.1762 121.524 44.3498C121.266 44.5231 120.982 44.6101 120.671 44.6101H119.214C118.937 44.6101 118.708 44.5297 118.528 44.3693C118.334 44.1957 118.269 43.9766 118.334 43.7119L118.749 42.0333C118.822 41.7384 118.976 41.5205 119.211 41.3795C119.447 41.2385 119.765 41.168 120.166 41.168H121.886L122.171 40.0164H122.916L122.021 43.6405ZM121.278 43.6274L121.653 42.1116C121.684 41.9858 121.662 41.8925 121.586 41.8316C121.511 41.7709 121.403 41.7408 121.262 41.7408H120.05C119.722 41.7408 119.527 41.8686 119.464 42.1244L119.081 43.6731C119.054 43.7815 119.076 43.8694 119.147 43.9366C119.218 44.0038 119.302 44.0373 119.398 44.0373H120.694C120.819 44.0373 120.939 43.9993 121.057 43.9235C121.175 43.8476 121.249 43.749 121.278 43.6274ZM126.703 43.7251C126.557 44.3149 126.066 44.6101 125.23 44.6101H124.069C123.233 44.6101 122.888 44.3149 123.034 43.7251L123.666 41.168H124.403L123.785 43.6665C123.75 43.8096 123.767 43.9052 123.838 43.9527C123.908 44.0005 124.033 44.0245 124.214 44.0245H125.383C125.575 44.0245 125.713 43.9973 125.797 43.9432C125.881 43.8888 125.941 43.7923 125.975 43.6533L126.589 41.168H127.335L126.703 43.7251ZM130.45 44.6101H128.763C128.362 44.6101 128.075 44.5252 127.902 44.3561C127.73 44.187 127.673 43.9811 127.733 43.7382L128.154 42.0333C128.221 41.7644 128.382 41.5531 128.637 41.3989C128.893 41.2451 129.213 41.168 129.597 41.168H131.291L131.15 41.7408H129.455C129.359 41.7408 129.253 41.7709 129.136 41.8316C128.987 41.9099 128.899 42.0031 128.872 42.1116L128.503 43.6079C128.472 43.7292 128.498 43.8314 128.58 43.9139C128.661 43.9961 128.772 44.0373 128.913 44.0373H130.591L130.45 44.6101ZM129.707 44.5841L129.124 45.2671L128.585 45.265L129.157 44.5841H129.707ZM135.2 43.7316C135.139 43.9787 134.977 44.187 134.715 44.3561C134.453 44.5252 134.183 44.6101 133.907 44.6101H132.424C132.13 44.6101 131.889 44.5178 131.7 44.3334C131.511 44.149 131.447 43.9333 131.508 43.6859L131.611 43.2697C131.696 42.927 131.861 42.6634 132.107 42.4791C132.353 42.2947 132.654 42.2024 133.01 42.2024H134.832L134.888 41.9747C134.904 41.9099 134.893 41.8567 134.856 41.8155C134.818 41.7742 134.755 41.7494 134.666 41.7408H131.989L132.13 41.168H134.765C135.093 41.168 135.336 41.2352 135.495 41.3697C135.654 41.5041 135.702 41.6995 135.639 41.9553L135.2 43.7316ZM134.462 43.6991L134.599 43.146C134.66 42.8989 134.493 42.7752 134.097 42.7752H133.072C132.671 42.7752 132.44 42.8989 132.379 43.146L132.242 43.6991C132.212 43.8204 132.237 43.9073 132.318 43.9593C132.398 44.0113 132.548 44.0373 132.769 44.0373H133.777C133.997 44.0373 134.159 44.0113 134.262 43.9593C134.366 43.9073 134.432 43.8204 134.462 43.6991ZM135.231 40.6215L134.929 40.7452C134.782 40.8145 134.599 40.8492 134.378 40.8492C134.18 40.8492 134.035 40.819 133.943 40.758L133.562 40.5498C133.518 40.5238 133.442 40.5109 133.335 40.5109C133.171 40.5109 133.042 40.5414 132.948 40.6021L132.54 40.7777L132.641 40.3678L132.754 40.3224C132.968 40.2354 133.185 40.1921 133.405 40.1921C133.496 40.1921 133.582 40.1987 133.663 40.2115C133.744 40.2247 133.823 40.2486 133.899 40.2832L134.322 40.4589C134.378 40.4849 134.437 40.4978 134.499 40.4978C134.561 40.4978 134.633 40.4825 134.713 40.4524L135.329 40.2247L135.231 40.6215ZM139.954 43.7642C139.894 44.0071 139.736 44.2088 139.482 44.3693C139.228 44.5297 138.92 44.6101 138.558 44.6101H137.203C136.847 44.6101 136.58 44.5309 136.401 44.3725C136.223 44.2142 136.164 44.0113 136.225 43.7642L136.669 41.9684C136.734 41.7082 136.88 41.5095 137.108 41.3729C137.337 41.2364 137.652 41.168 138.053 41.168H139.409C139.765 41.168 140.033 41.2406 140.215 41.3861C140.396 41.5313 140.457 41.7255 140.397 41.9684L139.954 43.7642ZM139.248 43.6014L139.605 42.157C139.674 41.8794 139.536 41.7408 139.191 41.7408H137.996C137.64 41.7408 137.428 41.8794 137.36 42.157L137.009 43.5754C136.933 43.8834 137.073 44.0373 137.429 44.0373H138.623C138.968 44.0373 139.176 43.8921 139.248 43.6014Z" fill="black"/>
<path fill-rule="evenodd" clip-rule="evenodd" d="M90.3572 41.7408H88.1103C88.0426 41.7408 87.9692 41.7635 87.8871 41.8089C87.8053 41.8546 87.7549 41.9161 87.7355 41.9944L87.6743 42.2415C87.6585 42.3067 87.6806 42.3706 87.7415 42.4337C87.8021 42.4964 87.8889 42.5278 88.002 42.5278H89.1035C89.4028 42.5278 89.6356 42.604 89.8012 42.7555C89.9672 42.9075 90.023 43.094 89.9681 43.3151L89.8347 43.8553C89.7875 44.046 89.6544 44.2196 89.4366 44.3758C89.2184 44.5318 88.9734 44.6101 88.7036 44.6101H86.3523L86.4938 44.0373H88.7403C88.8254 44.0373 88.9039 44.0104 88.9752 43.956C89.048 43.9019 89.0993 43.8141 89.1292 43.6925L89.1936 43.4322C89.2471 43.2153 89.1298 43.1068 88.8418 43.1068H87.8421C87.4804 43.1068 87.2168 43.031 87.0509 42.8792C86.9032 42.7447 86.8531 42.5822 86.9002 42.3912L87.0097 41.9487C87.0706 41.7016 87.2043 41.5095 87.4102 41.3729C87.615 41.2364 87.8734 41.168 88.1826 41.168H90.4987L90.3572 41.7408Z" fill="black"/>
<path d="M25.4365 18.5523L25.5532 17.8513H27.8171C27.9574 17.8513 28.0403 17.8486 28.0663 17.8436C28.0922 17.8385 28.1388 17.8098 28.2062 17.7578C28.3307 17.6437 28.4005 17.514 28.4163 17.3685L28.4551 17.1814H26.7824C26.5231 17.1814 26.3029 17.0933 26.1211 16.9167C25.9397 16.7401 25.849 16.522 25.849 16.2623L25.8645 16.0364L26.1835 14.0504C26.23 13.7438 26.3649 13.4868 26.5879 13.2792C26.8111 13.0715 27.0627 12.9675 27.3426 12.9675H28.8285C29.394 12.9675 29.6766 13.2427 29.6766 13.7931L29.6533 13.9957L29.1009 17.5164C29.049 17.8385 28.9025 18.0916 28.6613 18.2759C28.4202 18.4603 28.1128 18.5523 27.7395 18.5523H25.4365ZM26.5723 16.052C26.5723 16.3376 26.6968 16.4805 26.946 16.4805H28.1725C28.4319 16.4805 28.5873 16.3116 28.6393 15.974L28.9296 14.1436L28.9556 13.9724C28.9556 13.8839 28.9246 13.8113 28.8622 13.7543C28.8001 13.6972 28.7195 13.6685 28.6211 13.6685H27.4387C27.1158 13.6685 26.9239 13.8269 26.8615 14.1436L26.5765 15.9728L26.5723 16.052ZM30.1356 17.1814L30.6334 14.0814C30.6907 13.6972 30.8124 13.4193 30.9992 13.2478C31.0873 13.1701 31.2117 13.1038 31.3726 13.0494C31.5334 12.9947 31.6889 12.9675 31.8393 12.9675H32.2359L32.1273 13.6763H31.7835C31.5295 13.6763 31.3765 13.8164 31.3245 14.097L30.845 17.1814H30.1356ZM36.3128 12.9675L35.8147 16.1067C35.7837 16.2883 35.7252 16.4506 35.6398 16.5934C35.5542 16.7362 35.4414 16.8596 35.3014 16.9633C35.1975 17.0362 35.0794 17.0906 34.9472 17.127C34.815 17.1632 34.6529 17.1814 34.461 17.1814H33.3485C33.1411 17.1814 32.9841 17.1659 32.8779 17.1348C32.7716 17.1034 32.6716 17.0464 32.5785 16.9633C32.4072 16.7972 32.3216 16.574 32.3216 16.2934V16.1067L32.8259 12.9675H33.5365L33.0387 16.0105L33.0298 16.2065C33.0298 16.3792 33.1721 16.4649 33.4574 16.4649H34.5765C34.7633 16.4649 34.894 16.4324 34.9692 16.3675C35.0444 16.3027 35.0952 16.1844 35.1211 16.0131L35.6112 12.9675H36.3128ZM36.4139 18.5523L37.1296 14.0423C37.1812 13.6996 37.3176 13.4348 37.5378 13.2478C37.7584 13.061 38.0449 12.9675 38.3976 12.9675H39.7202C40.0157 12.9675 40.2491 13.0375 40.4204 13.1779C40.5914 13.318 40.677 13.5101 40.677 13.7543L40.6615 13.9957L40.3502 16.0143C40.2932 16.352 40.1455 16.6299 39.9056 16.8504C39.6671 17.0712 39.3908 17.1814 39.0795 17.1814H37.3409L37.1153 18.5523H36.4139ZM37.5107 16.1129C37.5107 16.2181 37.5405 16.3054 37.6002 16.3753C37.6599 16.4455 37.7363 16.4805 37.8297 16.4805H39.1678C39.2818 16.4805 39.3818 16.4416 39.4675 16.3636C39.5528 16.2856 39.6086 16.1844 39.6346 16.0598L39.9497 14.0659L39.9536 13.9491C39.9536 13.762 39.8498 13.6685 39.6423 13.6685H38.3898C38.0631 13.6685 37.8739 13.8113 37.8219 14.097L37.5134 15.9961L37.5107 16.1129ZM42.2563 17.1814C41.9608 17.1814 41.7248 17.1035 41.5484 16.9478C41.372 16.7921 41.284 16.5817 41.284 16.317L41.2995 16.1377L41.6496 13.9568C41.7015 13.6452 41.8376 13.4023 42.0578 13.2284C42.2784 13.0545 42.5649 12.9675 42.9176 12.9675H44.2092C44.51 12.9675 44.7485 13.0401 44.9248 13.1857C45.1012 13.3309 45.1892 13.5334 45.1892 13.7931L45.171 13.9568L44.8237 16.1455C44.7768 16.4416 44.6318 16.6881 44.388 16.8856C44.1442 17.0828 43.8642 17.1814 43.5479 17.1814H42.2563ZM42.0229 16.0753C42.0229 16.3454 42.1683 16.4805 42.4586 16.4805H43.5774C43.7487 16.4805 43.8809 16.4389 43.9743 16.3559C44.0678 16.2728 44.1274 16.1377 44.1534 15.9507L44.445 14.175L44.45 14.0423C44.45 13.7931 44.3101 13.6685 44.0302 13.6685H42.8994C42.5675 13.6685 42.3706 13.8373 42.3082 14.175L42.0283 15.9196L42.0229 16.0753Z" fill="black"/>
</svg>
