<svg width="295" height="117" viewBox="0 0 295 117" fill="none" xmlns="http://www.w3.org/2000/svg">
<path fill-rule="evenodd" clip-rule="evenodd" d="M0.0210098 24.7426L294.9 7.99415L294.895 79.8653L0.0175105 79.8858L0.0210098 24.7426Z" fill="black"/>
<path fill-rule="evenodd" clip-rule="evenodd" d="M36.504 17.915L263.123 0.0138218L271.575 101.042L23.3346 89.4459L36.504 17.915Z" fill="#E3000F"/>
<path fill-rule="evenodd" clip-rule="evenodd" d="M185.056 42.2259C183.616 42.1213 182.352 43.2166 182.248 44.6607L180.751 65.3853C180.647 66.8288 181.74 68.0955 183.18 68.2001C184.62 68.3047 185.884 67.2089 185.988 65.7648L187.485 45.0407C187.589 43.5972 186.497 42.33 185.056 42.2259ZM242.5 55.5482L229.226 55.4808C227.696 55.4726 226.853 56.4928 226.538 57.0662L222.572 64.2933C221.876 65.5616 222.308 67.1673 223.565 67.8803C224.821 68.5928 226.455 68.1585 227.142 66.8853L230.458 60.7452L245.046 60.8262C245.188 60.8268 245.328 60.8158 245.465 60.7945L248.907 66.8853C249.62 68.1448 251.228 68.5928 252.485 67.8797C253.742 67.1678 254.189 65.5529 253.477 64.2933L241.114 42.4181C240.402 41.1591 238.793 40.7106 237.537 41.4231C236.279 42.1361 235.832 43.7505 236.544 45.0101L242.5 55.5482ZM216.246 42.0945L198.848 42.0123C193.933 41.9899 190.605 45.7893 190.267 50.3369L189.46 61.1625C189.068 66.4313 194.374 67.641 198.424 67.6623L213.837 67.7439C215.576 67.7527 220.449 67.0714 220.729 63.6887L220.913 61.4467C221.032 60.0037 219.924 58.7359 218.485 58.6313C217.044 58.5267 215.794 59.6242 215.676 61.0667C215.594 62.0792 215.552 62.0453 215.521 62.2123C215.458 62.5551 215.102 62.4867 213.858 62.4801L198.445 62.3985C195.656 62.3837 194.772 61.9993 194.784 60.3744L195.503 50.7169C195.694 48.1546 196.457 47.2652 198.827 47.2762L216.225 47.3578C216.637 47.36 216.759 47.3769 216.823 47.4865C216.904 47.6272 216.851 47.9131 216.804 48.4257C216.669 49.8665 217.792 51.1359 219.232 51.2405C220.673 51.3451 221.922 50.2482 222.041 48.8057L222.225 46.5637C222.456 43.7598 220.306 42.1131 216.246 42.0945ZM138.864 42.0945L121.465 42.0123C116.551 41.9899 113.222 45.7893 112.884 50.3369L112.078 61.1625C111.686 66.4313 116.992 67.641 121.042 67.6623L136.455 67.7439C138.194 67.7527 143.067 67.0714 143.346 63.6887L143.531 61.4467C143.65 60.0037 142.543 58.7359 141.102 58.6313C139.662 58.5267 138.412 59.6242 138.294 61.0667C138.211 62.0792 138.169 62.0453 138.139 62.2123C138.075 62.5551 137.72 62.4867 136.475 62.4801L121.063 62.3985C118.274 62.3837 117.39 61.9993 117.402 60.3744L118.121 50.7169C118.312 48.1546 119.075 47.2652 121.445 47.2762L138.843 47.3578C139.255 47.36 139.377 47.3769 139.441 47.4865C139.521 47.6272 139.469 47.9131 139.421 48.4257C139.288 49.8665 140.41 51.1359 141.85 51.2405C143.291 51.3451 144.539 50.2482 144.658 48.8057L144.843 46.5637C145.074 43.7598 142.925 42.1131 138.864 42.0945ZM109.503 54.4332C109.509 52.9852 108.332 51.7958 106.888 51.7909L83.8129 51.7093C82.9089 51.706 82.1053 52.1671 81.6301 52.8681C81.293 53.2755 81.0745 53.787 81.0341 54.3521L80.2972 64.6931C80.2229 65.7336 80.7697 66.6821 81.6202 67.17C82.0419 67.4636 82.5521 67.6371 83.1017 67.6393L107.421 67.7209C108.864 67.7259 110.05 66.5468 110.056 65.0994C110.062 63.6515 108.884 62.462 107.441 62.4571L85.7254 62.3843L86.1105 56.9808L106.868 57.0547C108.311 57.0596 109.497 55.8806 109.503 54.4332ZM57.8433 42.3234L56.2553 65.3853C56.1559 66.8288 57.244 68.0955 58.684 68.2001C60.1239 68.3047 61.3923 67.2089 61.4917 65.7648L63.1054 42.336L77.8505 42.371C79.2948 42.3743 80.4807 41.1969 80.4862 39.7495C80.4922 38.3016 79.315 37.1105 77.8713 37.1072L43.604 37.0256C42.1597 37.0223 40.9737 38.1992 40.9683 39.6471C40.9628 41.0945 42.1389 42.2861 43.5832 42.2894L57.8433 42.3234ZM112.129 44.7363C112.134 43.2889 110.958 42.0989 109.514 42.0939L84.434 42.0123C82.9902 42.008 81.8043 43.1864 81.7983 44.6338C81.7928 46.0812 82.9695 47.2712 84.4138 47.2762L109.493 47.3578C110.937 47.3627 112.123 46.1836 112.129 44.7363ZM177.319 42.2259C175.878 42.1213 174.615 43.2166 174.51 44.6607L173.366 60.5114L152.511 43.0397C152.246 42.8179 151.948 42.6635 151.636 42.5731C151.303 42.3787 150.921 42.2555 150.512 42.2259C149.072 42.1213 147.809 43.2166 147.704 44.6607L146.208 65.3853C146.103 66.8288 147.196 68.0955 148.636 68.2001C150.077 68.3047 151.34 67.2089 151.445 65.7648L152.586 49.9574L173.72 67.6629C174.268 68.1218 174.958 68.291 175.622 68.2067C176.986 68.2122 178.151 67.1487 178.25 65.7648L179.747 45.0407C179.852 43.5972 178.758 42.33 177.319 42.2259Z" fill="white"/>
<path fill-rule="evenodd" clip-rule="evenodd" d="M118.798 81.7754H114.253C113.581 81.7754 113.081 81.6242 112.752 81.3219C112.423 81.0196 112.321 80.6182 112.444 80.1177L113.142 77.2914C113.442 76.0751 114.429 75.4667 116.104 75.4667H118.121C118.793 75.4667 119.283 75.6079 119.59 75.89C119.898 76.1725 119.989 76.5679 119.863 77.0767L119.678 77.828L113.888 79.736L113.835 79.9507C113.762 80.2447 113.785 80.4474 113.902 80.5585C114.019 80.6703 114.248 80.7256 114.59 80.7256H119.057L118.798 81.7754ZM118.494 77.1605C118.539 76.977 118.522 76.8341 118.445 76.7306C118.335 76.5877 118.125 76.5165 117.815 76.5165H115.613C114.992 76.5165 114.617 76.7826 114.484 77.3171L114.175 78.5832L118.494 77.1605ZM127.478 76.5165H123.365C123.241 76.5165 123.107 76.5581 122.957 76.6413C122.807 76.7251 122.714 76.8379 122.679 76.9814L122.567 77.4343C122.538 77.5537 122.578 77.6709 122.69 77.7864C122.801 77.9014 122.96 77.9589 123.167 77.9589H125.183C125.731 77.9589 126.157 78.0986 126.461 78.3762C126.764 78.655 126.866 78.9967 126.766 79.4019L126.522 80.3921C126.435 80.7415 126.191 81.0596 125.792 81.346C125.394 81.6319 124.945 81.7754 124.451 81.7754H120.147L120.406 80.7256H124.519C124.674 80.7256 124.818 80.6763 124.948 80.5766C125.081 80.4775 125.175 80.3165 125.23 80.0936L125.348 79.6166C125.446 79.219 125.231 79.0202 124.704 79.0202H122.874C122.212 79.0202 121.729 78.8811 121.426 78.6029C121.156 78.3565 121.064 78.0586 121.15 77.7087L121.35 76.8976C121.462 76.4447 121.706 76.0926 122.084 75.8423C122.458 75.5921 122.931 75.4667 123.497 75.4667H127.737L127.478 76.5165ZM133.206 81.7754H130.119C129.386 81.7754 128.86 81.6199 128.544 81.3099C128.227 80.9999 128.124 80.6226 128.234 80.1774L129.005 77.0526C129.126 76.5597 129.421 76.1725 129.889 75.89C130.356 75.6079 130.942 75.4667 131.645 75.4667H134.747L134.488 76.5165H131.386C131.21 76.5165 131.016 76.5718 130.802 76.6829C130.529 76.8264 130.368 76.9973 130.319 77.1961L129.642 79.9386C129.587 80.161 129.634 80.3482 129.783 80.4994C129.932 80.65 130.136 80.7256 130.394 80.7256H133.465L133.206 81.7754ZM141.933 80.225C141.823 80.6703 141.536 81.0399 141.07 81.334C140.604 81.6281 140.041 81.7754 139.379 81.7754H136.897C136.246 81.7754 135.757 81.6303 135.431 81.34C135.104 81.0498 134.997 80.6779 135.108 80.225L135.921 76.9338C136.038 76.4568 136.306 76.0926 136.725 75.8423C137.144 75.5921 137.719 75.4667 138.454 75.4667H140.935C141.587 75.4667 142.079 75.5997 142.411 75.8664C142.743 76.1326 142.855 76.4885 142.745 76.9338L141.933 80.225ZM140.641 79.9266L141.295 77.2793C141.42 76.7706 141.167 76.5165 140.537 76.5165H138.35C137.699 76.5165 137.31 76.7706 137.185 77.2793L136.543 79.8789C136.404 80.4435 136.66 80.7256 137.311 80.7256H139.499C140.129 80.7256 140.51 80.4594 140.641 79.9266ZM144.792 81.7754H143.443L145.519 73.3561H146.869L144.792 81.7754ZM153.874 80.1653C153.763 80.6182 153.467 80.9999 152.987 81.3099C152.507 81.6199 152.014 81.7754 151.508 81.7754H148.793C148.256 81.7754 147.814 81.6062 147.469 81.2683C147.122 80.9304 147.006 80.535 147.117 80.0815L147.306 79.3187C147.461 78.6906 147.763 78.2076 148.214 77.8697C148.664 77.5318 149.215 77.3625 149.867 77.3625H153.201L153.304 76.9453C153.334 76.8264 153.313 76.7289 153.245 76.6534C153.175 76.5778 153.059 76.5323 152.898 76.5165H147.997L148.256 75.4667H153.08C153.679 75.4667 154.125 75.5899 154.415 75.8363C154.706 76.0827 154.793 76.4409 154.678 76.9097L153.874 80.1653ZM152.524 80.1056L152.774 79.092C152.886 78.6391 152.58 78.4124 151.857 78.4124H149.98C149.245 78.4124 148.823 78.6391 148.711 79.092L148.461 80.1056C148.406 80.328 148.452 80.4873 148.599 80.5826C148.746 80.6779 149.021 80.7256 149.425 80.7256H151.27C151.674 80.7256 151.97 80.6779 152.159 80.5826C152.348 80.4873 152.47 80.328 152.524 80.1056ZM174.718 79.9983C174.583 80.547 174.279 80.9802 173.807 81.2984C173.336 81.616 172.816 81.7754 172.247 81.7754H169.58C169.073 81.7754 168.655 81.6281 168.324 81.334C167.968 81.0158 167.85 80.6144 167.97 80.1292L168.729 77.0526C168.862 76.5121 169.144 76.1129 169.575 75.8544C170.006 75.5959 170.588 75.4667 171.323 75.4667H174.471L174.992 73.3561H176.357L174.718 79.9983ZM173.359 79.9742L174.045 77.1961C174.101 76.9655 174.061 76.7947 173.923 76.6829C173.784 76.5718 173.586 76.5165 173.328 76.5165H171.11C170.51 76.5165 170.153 76.7509 170.037 77.2196L169.337 80.058C169.288 80.2568 169.328 80.4178 169.458 80.541C169.588 80.6642 169.741 80.7256 169.916 80.7256H172.289C172.517 80.7256 172.738 80.656 172.954 80.5169C173.169 80.3778 173.304 80.1971 173.359 79.9742ZM182.934 81.7754H178.389C177.718 81.7754 177.217 81.6242 176.888 81.3219C176.559 81.0196 176.457 80.6182 176.58 80.1177L177.278 77.2914C177.578 76.0751 178.565 75.4667 180.241 75.4667H182.257C182.929 75.4667 183.419 75.6079 183.727 75.89C184.034 76.1725 184.126 76.5679 184 77.0767L183.814 77.828L178.024 79.736L177.971 79.9507C177.898 80.2447 177.921 80.4474 178.038 80.5585C178.155 80.6703 178.385 80.7256 178.726 80.7256H183.193L182.934 81.7754ZM182.63 77.1605C182.675 76.977 182.659 76.8341 182.581 76.7306C182.471 76.5877 182.261 76.5165 181.952 76.5165H179.749C179.129 76.5165 178.753 76.7826 178.62 77.3171L178.311 78.5832L182.63 77.1605ZM194.271 81.7754H191.185C190.451 81.7754 189.926 81.6199 189.609 81.3099C189.293 80.9999 189.189 80.6226 189.299 80.1774L190.07 77.0526C190.192 76.5597 190.486 76.1725 190.954 75.89C191.422 75.6079 192.007 75.4667 192.711 75.4667H195.812L195.553 76.5165H192.451C192.276 76.5165 192.081 76.5718 191.867 76.6829C191.595 76.8264 191.433 76.9973 191.384 77.1961L190.708 79.9386C190.652 80.161 190.699 80.3482 190.848 80.4994C190.997 80.65 191.201 80.7256 191.459 80.7256H194.53L194.271 81.7754ZM202.998 80.225C202.889 80.6703 202.601 81.0399 202.135 81.334C201.67 81.6281 201.106 81.7754 200.444 81.7754H197.962C197.311 81.7754 196.822 81.6303 196.496 81.34C196.17 81.0498 196.062 80.6779 196.174 80.225L196.986 76.9338C197.104 76.4568 197.372 76.0926 197.79 75.8423C198.209 75.5921 198.785 75.4667 199.519 75.4667H202.001C202.652 75.4667 203.144 75.5997 203.476 75.8664C203.809 76.1326 203.92 76.4885 203.81 76.9338L202.998 80.225ZM201.707 79.9266L202.36 77.2793C202.485 76.7706 202.233 76.5165 201.602 76.5165H199.415C198.764 76.5165 198.375 76.7706 198.25 77.2793L197.608 79.8789C197.469 80.4435 197.725 80.7256 198.376 80.7256H200.564C201.195 80.7256 201.575 80.4594 201.707 79.9266ZM211.223 81.7754H209.859L210.983 77.2196C211.038 76.9973 211.01 76.8281 210.898 76.7131C210.787 76.5975 210.566 76.54 210.235 76.54H208.095C207.733 76.54 207.473 76.5877 207.315 76.6829C207.158 76.7788 207.046 76.9573 206.981 77.2196L205.857 81.7754H204.508L205.664 77.0887C205.931 76.0077 206.829 75.4667 208.36 75.4667H210.485C212.015 75.4667 212.647 76.0077 212.38 77.0887L211.223 81.7754ZM220.27 79.9983C220.134 80.547 219.831 80.9802 219.36 81.2984C218.888 81.616 218.368 81.7754 217.8 81.7754H215.132C214.625 81.7754 214.206 81.6281 213.876 81.334C213.52 81.0158 213.402 80.6144 213.521 80.1292L214.281 77.0526C214.414 76.5121 214.696 76.1129 215.127 75.8544C215.558 75.5959 216.141 75.4667 216.874 75.4667H220.023L220.544 73.3561H221.909L220.27 79.9983ZM218.911 79.9742L219.596 77.1961C219.653 76.9655 219.613 76.7947 219.475 76.6829C219.337 76.5718 219.139 76.5165 218.88 76.5165H216.662C216.063 76.5165 215.705 76.7509 215.589 77.2196L214.889 80.058C214.84 80.2568 214.88 80.4178 215.01 80.541C215.14 80.6642 215.292 80.7256 215.468 80.7256H217.842C218.069 80.7256 218.29 80.656 218.506 80.5169C218.721 80.3778 218.856 80.1971 218.911 79.9742ZM228.84 80.1533C228.573 81.2343 227.674 81.7754 226.144 81.7754H224.019C222.489 81.7754 221.857 81.2343 222.124 80.1533L223.28 75.4667H224.63L223.499 80.046C223.435 80.3083 223.467 80.4835 223.595 80.5706C223.723 80.6582 223.953 80.702 224.284 80.702H226.424C226.776 80.702 227.028 80.6522 227.182 80.5531C227.336 80.4534 227.444 80.2765 227.507 80.0219L228.631 75.4667H229.996L228.84 80.1533ZM235.698 81.7754H232.612C231.877 81.7754 231.352 81.6199 231.036 81.3099C230.719 80.9999 230.616 80.6226 230.726 80.1774L231.497 77.0526C231.618 76.5597 231.913 76.1725 232.38 75.89C232.849 75.6079 233.434 75.4667 234.137 75.4667H237.239L236.98 76.5165H233.878C233.702 76.5165 233.507 76.5718 233.294 76.6829C233.021 76.8264 232.86 76.9973 232.81 77.1961L232.134 79.9386C232.079 80.161 232.126 80.3482 232.275 80.4994C232.424 80.65 232.627 80.7256 232.886 80.7256H235.957L235.698 81.7754ZM234.339 81.7277L233.271 82.9796L232.284 82.9758L233.331 81.7277H234.339ZM244.393 80.1653C244.281 80.6182 243.985 80.9999 243.506 81.3099C243.026 81.6199 242.533 81.7754 242.026 81.7754H239.312C238.774 81.7754 238.332 81.6062 237.987 81.2683C237.64 80.9304 237.524 80.535 237.635 80.0815L237.824 79.3187C237.979 78.6906 238.282 78.2076 238.732 77.8697C239.182 77.5318 239.734 77.3625 240.385 77.3625H243.72L243.822 76.9453C243.852 76.8264 243.832 76.7289 243.763 76.6534C243.693 76.5778 243.578 76.5323 243.416 76.5165H238.515L238.774 75.4667H243.598C244.198 75.4667 244.643 75.5899 244.933 75.8363C245.225 76.0827 245.312 76.4409 245.196 76.9097L244.393 80.1653ZM243.043 80.1056L243.293 79.092C243.404 78.6391 243.099 78.4124 242.375 78.4124H240.498C239.764 78.4124 239.341 78.6391 239.229 79.092L238.979 80.1056C238.924 80.328 238.971 80.4873 239.117 80.5826C239.264 80.6779 239.54 80.7256 239.943 80.7256H241.789C242.192 80.7256 242.488 80.6779 242.677 80.5826C242.866 80.4873 242.988 80.328 243.043 80.1056ZM244.45 74.465L243.898 74.6918C243.628 74.8188 243.292 74.8823 242.889 74.8823C242.527 74.8823 242.262 74.827 242.093 74.7153L241.396 74.3336C241.314 74.286 241.176 74.2624 240.979 74.2624C240.679 74.2624 240.443 74.3183 240.271 74.4294L239.525 74.7514L239.71 74.0001L239.917 73.9168C240.308 73.7575 240.704 73.6781 241.108 73.6781C241.274 73.6781 241.431 73.6901 241.58 73.7137C241.729 73.7378 241.873 73.7816 242.013 73.8451L242.786 74.1671C242.888 74.2148 242.996 74.2383 243.11 74.2383C243.224 74.2383 243.355 74.2104 243.503 74.1551L244.629 73.7378L244.45 74.465ZM253.095 80.225C252.985 80.6703 252.697 81.0399 252.231 81.334C251.766 81.6281 251.202 81.7754 250.541 81.7754H248.059C247.408 81.7754 246.919 81.6303 246.592 81.34C246.266 81.0498 246.159 80.6779 246.27 80.225L247.082 76.9338C247.2 76.4568 247.468 76.0926 247.887 75.8423C248.305 75.5921 248.882 75.4667 249.616 75.4667H252.097C252.749 75.4667 253.24 75.5997 253.573 75.8664C253.905 76.1326 254.017 76.4885 253.907 76.9338L253.095 80.225ZM251.803 79.9266L252.456 77.2793C252.582 76.7706 252.33 76.5165 251.699 76.5165H249.512C248.861 76.5165 248.472 76.7706 248.346 77.2793L247.705 79.8789C247.566 80.4435 247.822 80.7256 248.473 80.7256H250.66C251.291 80.7256 251.672 80.4594 251.803 79.9266Z" fill="black"/>
<path fill-rule="evenodd" clip-rule="evenodd" d="M162.311 76.5165H158.198C158.074 76.5165 157.94 76.5581 157.789 76.6413C157.64 76.7251 157.547 76.8379 157.512 76.9814L157.4 77.4343C157.371 77.5537 157.411 77.6709 157.523 77.7864C157.634 77.9014 157.793 77.9589 158 77.9589H160.016C160.564 77.9589 160.99 78.0986 161.293 78.3762C161.597 78.655 161.699 78.9967 161.598 79.4019L161.354 80.3921C161.268 80.7415 161.024 81.0596 160.626 81.346C160.226 81.6319 159.778 81.7754 159.284 81.7754H154.98L155.239 80.7256H159.351C159.507 80.7256 159.65 80.6763 159.781 80.5766C159.914 80.4775 160.008 80.3165 160.063 80.0936L160.181 79.6166C160.279 79.219 160.064 79.0203 159.537 79.0203H157.707C157.045 79.0203 156.562 78.8812 156.259 78.603C155.988 78.3565 155.897 78.0586 155.983 77.7087L156.183 76.8976C156.295 76.4447 156.54 76.0926 156.916 75.8423C157.291 75.5921 157.764 75.4667 158.33 75.4667H162.57L162.311 76.5165Z" fill="black"/>
<path d="M43.4773 34.0166L43.6909 32.7318H47.8348C48.0915 32.7318 48.2434 32.7269 48.2909 32.7176C48.3384 32.7083 48.4237 32.6557 48.5471 32.5604C48.7749 32.3512 48.9027 32.1135 48.9317 31.8468L49.0027 31.504H45.9409C45.4662 31.504 45.0631 31.3425 44.7304 31.0188C44.3983 30.6952 44.2322 30.2954 44.2322 29.8195L44.2606 29.4055L44.8446 25.7654C44.9298 25.2035 45.1767 24.7325 45.5848 24.3519C45.9934 23.9713 46.4539 23.7808 46.9662 23.7808H49.6861C50.7212 23.7808 51.2385 24.2851 51.2385 25.2939L51.1959 25.6652L50.1848 32.1179C50.0897 32.7083 49.8215 33.1721 49.3802 33.51C48.9388 33.8479 48.3761 34.0166 47.6928 34.0166H43.4773ZM45.5564 29.434C45.5564 29.9575 45.7841 30.2193 46.2403 30.2193H48.4854C48.9601 30.2193 49.2447 29.9099 49.3397 29.291L49.8712 25.9362L49.9188 25.6225C49.9188 25.4604 49.862 25.3273 49.7478 25.2227C49.6342 25.1181 49.4867 25.0655 49.3064 25.0655H47.1421C46.5511 25.0655 46.1998 25.3558 46.0857 25.9362L45.564 29.2889L45.5564 29.434ZM52.0787 31.504L52.9898 25.8223C53.0947 25.1181 53.3176 24.6088 53.6595 24.2944C53.8207 24.1521 54.0485 24.0305 54.3429 23.9308C54.6373 23.8306 54.9219 23.7808 55.1973 23.7808H55.9232L55.7244 25.0798H55.0951C54.6302 25.0798 54.35 25.3366 54.255 25.8508L53.3771 31.504H52.0787ZM63.3856 23.7808L62.4739 29.5342C62.4171 29.8672 62.3101 30.1645 62.1538 30.4263C61.9971 30.6881 61.7906 30.9142 61.5344 31.1042C61.3443 31.2379 61.128 31.3375 60.886 31.4043C60.644 31.4706 60.3474 31.504 59.9961 31.504H57.9597C57.58 31.504 57.2927 31.4755 57.0982 31.4186C56.9038 31.3611 56.7208 31.2565 56.5503 31.1042C56.2368 30.7998 56.08 30.3907 56.08 29.8765V29.5342L57.0032 23.7808H58.3038L57.3927 29.3578L57.3763 29.7171C57.3763 30.0336 57.6368 30.1908 58.1591 30.1908H60.2075C60.5495 30.1908 60.7887 30.1311 60.9264 30.0123C61.0641 29.8934 61.1569 29.6766 61.2044 29.3628L62.1014 23.7808H63.3856ZM63.5708 34.0166L64.8808 25.7506C64.9753 25.1225 65.2249 24.6373 65.628 24.2944C66.0317 23.9522 66.5561 23.7808 67.2018 23.7808H69.6228C70.1636 23.7808 70.5908 23.9089 70.9043 24.1663C71.2173 24.4231 71.3741 24.7753 71.3741 25.2227L71.3457 25.6652L70.776 29.365C70.6716 29.9838 70.4012 30.4931 69.962 30.8972C69.5256 31.3019 69.0198 31.504 68.45 31.504H65.2675L64.8545 34.0166H63.5708ZM65.5783 29.5457C65.5783 29.7385 65.633 29.8984 65.7422 30.0265C65.8515 30.1552 65.9913 30.2193 66.1623 30.2193H68.6117C68.8204 30.2193 69.0034 30.1481 69.1601 30.0052C69.3164 29.8622 69.4185 29.6766 69.466 29.4482L70.0429 25.7939L70.05 25.5797C70.05 25.2369 69.8599 25.0655 69.4803 25.0655H67.1876C66.5895 25.0655 66.2431 25.3273 66.1481 25.8508L65.5833 29.3316L65.5783 29.5457ZM74.2649 31.504C73.7241 31.504 73.292 31.3611 72.9692 31.0758C72.6464 30.7905 72.4852 30.4049 72.4852 29.9197L72.5136 29.5911L73.1544 25.594C73.2494 25.0228 73.4985 24.5776 73.9017 24.2588C74.3053 23.9401 74.8297 23.7808 75.4754 23.7808H77.8396C78.3903 23.7808 78.8267 23.9138 79.1496 24.1805C79.4724 24.4467 79.6335 24.818 79.6335 25.2939L79.6002 25.594L78.9644 29.6054C78.8786 30.1481 78.6131 30.5999 78.1668 30.9619C77.7205 31.3233 77.2082 31.504 76.6291 31.504H74.2649ZM73.8377 29.4767C73.8377 29.9717 74.1038 30.2193 74.6353 30.2193H76.6832C76.9967 30.2193 77.2387 30.1432 77.4097 29.9909C77.5807 29.8387 77.69 29.5911 77.7375 29.2483L78.2712 25.9938L78.2805 25.7506C78.2805 25.2939 78.0243 25.0655 77.5119 25.0655H75.4421C74.8347 25.0655 74.4741 25.3749 74.36 25.9938L73.8476 29.1914L73.8377 29.4767Z" fill="black"/>
</svg>
