<svg width="25" height="30" viewBox="0 0 25 30" fill="none" xmlns="http://www.w3.org/2000/svg">
<path fill-rule="evenodd" clip-rule="evenodd" d="M3 0C2.44772 0 2 0.447716 2 1V29C2 29.5523 2.44772 30 3 30H21C21.5523 30 22 29.5523 22 29V1C22 0.995939 22 0.991884 21.9999 0.987835V5L17.9999 0H3Z" fill="white"/>
<path fill-rule="evenodd" clip-rule="evenodd" d="M21.9998 4.99976V5H18V0L21.9998 4.99976Z" fill="#DADADA"/>
<rect x="1" y="10" width="22" height="12.5" rx="1" fill="#F84A4A"/>
<path d="M5.25746 19V13.1818H7.43928C7.88625 13.1818 8.26125 13.2652 8.56428 13.4318C8.8692 13.5985 9.09931 13.8277 9.25462 14.1193C9.41181 14.4091 9.49041 14.7386 9.49041 15.108C9.49041 15.4811 9.41181 15.8125 9.25462 16.1023C9.09742 16.392 8.86541 16.6203 8.55859 16.7869C8.25178 16.9517 7.87393 17.0341 7.42507 17.0341H5.97905V16.1676H7.28303C7.54439 16.1676 7.7584 16.1222 7.92507 16.0312C8.09174 15.9403 8.21484 15.8153 8.29439 15.6562C8.37583 15.4972 8.41655 15.3144 8.41655 15.108C8.41655 14.9015 8.37583 14.7197 8.29439 14.5625C8.21484 14.4053 8.09079 14.2831 7.92223 14.196C7.75556 14.107 7.5406 14.0625 7.27734 14.0625H6.31143V19H5.25746ZM12.3775 19H10.4059V13.1818H12.4173C12.9949 13.1818 13.4911 13.2983 13.9059 13.5312C14.3226 13.7623 14.6426 14.0947 14.8661 14.5284C15.0896 14.9621 15.2013 15.4811 15.2013 16.0852C15.2013 16.6913 15.0887 17.2121 14.8633 17.6477C14.6398 18.0833 14.3169 18.4176 13.8945 18.6506C13.4741 18.8835 12.9684 19 12.3775 19ZM11.4599 18.0881H12.3263C12.7317 18.0881 13.0697 18.0142 13.3406 17.8665C13.6114 17.7169 13.815 17.4943 13.9513 17.1989C14.0877 16.9015 14.1559 16.5303 14.1559 16.0852C14.1559 15.6402 14.0877 15.2708 13.9513 14.9773C13.815 14.6818 13.6133 14.4612 13.3462 14.3153C13.0811 14.1676 12.7515 14.0938 12.3576 14.0938H11.4599V18.0881ZM16.2028 19V13.1818H19.93V14.0653H17.2567V15.6449H19.6744V16.5284H17.2567V19H16.2028Z" fill="white"/>
</svg>
