<svg width="38" height="14" viewBox="0 0 38 14" fill="none" xmlns="http://www.w3.org/2000/svg">
<path d="M33.5184 10.4859L36.5178 10.4847L36.5184 1.94788L32.8274 2.15588" stroke="black"/>
<path d="M4.3736 10.4859L1.36938 10.4871L1.3698 3.93726L5.61346 3.6971" stroke="black"/>
<path fill-rule="evenodd" clip-rule="evenodd" d="M5.71867 3.12628L32.7308 1L33.7382 13L4.14893 11.6226L5.71867 3.12628Z" stroke="black"/>
<path fill-rule="evenodd" clip-rule="evenodd" d="M23.4252 6.01393C23.2535 6.00151 23.1029 6.1316 23.0905 6.30313L22.9121 8.76478C22.8996 8.93624 23.0299 9.08669 23.2016 9.09912C23.3733 9.11154 23.5239 8.98138 23.5363 8.80985L23.7147 6.34827C23.7272 6.17681 23.5969 6.02629 23.4252 6.01393ZM30.2723 7.59633L28.69 7.58833C28.5077 7.58736 28.4072 7.70854 28.3697 7.77664L27.897 8.63507C27.814 8.78572 27.8655 8.97644 28.0153 9.06113C28.165 9.14576 28.3598 9.09417 28.4417 8.94294L28.8369 8.21363L30.5758 8.22326C30.5927 8.22332 30.6094 8.22202 30.6257 8.21948L31.036 8.94294C31.1209 9.09255 31.3127 9.14576 31.4625 9.06106C31.6123 8.9765 31.6656 8.78468 31.5807 8.63507L30.1071 6.03676C30.0222 5.88722 29.8305 5.83394 29.6807 5.91857C29.5308 6.00326 29.4775 6.19502 29.5624 6.34463L30.2723 7.59633ZM27.1429 5.99832L25.0691 5.98856C24.4833 5.98589 24.0866 6.43719 24.0463 6.97734L23.9502 8.2632C23.9034 8.88902 24.5359 9.0327 25.0186 9.03524L26.8558 9.04493C27.0631 9.04597 27.644 8.96506 27.6772 8.56326L27.6992 8.29696C27.7134 8.12556 27.5814 7.97497 27.4097 7.96255C27.238 7.95012 27.0891 8.08048 27.075 8.25181C27.0652 8.37209 27.0602 8.36805 27.0565 8.38789C27.049 8.42861 27.0066 8.42048 26.8582 8.4197L25.0211 8.41001C24.6887 8.40825 24.5833 8.36259 24.5847 8.16959L24.6705 7.02249C24.6932 6.71813 24.7842 6.61249 25.0666 6.6138L27.1404 6.62349C27.1895 6.62375 27.2041 6.62576 27.2117 6.63877C27.2213 6.65549 27.2151 6.68945 27.2094 6.75033C27.1934 6.92147 27.3272 7.07225 27.4989 7.08467C27.6706 7.09709 27.8194 6.96681 27.8336 6.79547L27.8556 6.52917C27.8832 6.19613 27.6269 6.00053 27.1429 5.99832ZM17.9192 5.99832L15.8454 5.98856C15.2596 5.98589 14.8629 6.43719 14.8226 6.97734L14.7265 8.2632C14.6797 8.88902 15.3122 9.0327 15.795 9.03524L17.6321 9.04493C17.8394 9.04597 18.4203 8.96506 18.4535 8.56326L18.4756 8.29696C18.4898 8.12556 18.3578 7.97497 18.1861 7.96255C18.0144 7.95012 17.8654 8.08048 17.8513 8.25181C17.8415 8.37209 17.8365 8.36805 17.8328 8.38789C17.8252 8.42861 17.783 8.42048 17.6346 8.4197L15.7974 8.41001C15.465 8.40825 15.3596 8.36259 15.3611 8.16959L15.4468 7.02249C15.4695 6.71813 15.5606 6.61249 15.843 6.6138L17.9168 6.62349C17.9659 6.62375 17.9804 6.62576 17.988 6.63877C17.9976 6.65549 17.9914 6.68945 17.9857 6.75033C17.9698 6.92147 18.1036 7.07225 18.2752 7.08467C18.4469 7.09709 18.5958 6.96681 18.6099 6.79547L18.632 6.52917C18.6595 6.19613 18.4033 6.00053 17.9192 5.99832ZM14.4196 7.4639C14.4203 7.29191 14.2799 7.15063 14.1079 7.15004L11.3574 7.14035C11.2496 7.13996 11.1539 7.19473 11.0972 7.27799C11.057 7.32639 11.031 7.38714 11.0262 7.45427L10.9383 8.68255C10.9295 8.80614 10.9947 8.91881 11.096 8.97676C11.1463 9.01163 11.2071 9.03225 11.2726 9.03251L14.1713 9.0422C14.3434 9.04279 14.4848 8.90274 14.4854 8.73082C14.4862 8.55884 14.3458 8.41755 14.1738 8.41697L11.5854 8.40832L11.6313 7.7665L14.1054 7.77528C14.2775 7.77586 14.4189 7.63582 14.4196 7.4639ZM8.26192 6.02551L8.07264 8.76478C8.06079 8.93624 8.1905 9.08669 8.36213 9.09912C8.53377 9.11154 8.68496 8.98138 8.69681 8.80985L8.88915 6.027L10.6467 6.03117C10.8189 6.03156 10.9602 5.89171 10.9609 5.71979C10.9616 5.5478 10.8213 5.40632 10.6492 5.40593L6.56465 5.39624C6.3925 5.39585 6.25114 5.53564 6.25049 5.70762C6.24984 5.87954 6.39003 6.02108 6.56218 6.02147L8.26192 6.02551ZM14.7325 6.31211C14.7332 6.14019 14.5929 5.99884 14.4209 5.99825L11.4314 5.98856C11.2593 5.98804 11.118 6.12802 11.1173 6.29994C11.1166 6.47186 11.2569 6.61321 11.429 6.6138L14.4184 6.62349C14.5905 6.62407 14.7318 6.48403 14.7325 6.31211ZM22.5029 6.01393C22.3312 6.00151 22.1806 6.1316 22.1682 6.30313L22.0318 8.18586L19.5459 6.11059C19.5144 6.08425 19.4789 6.0659 19.4416 6.05517C19.4019 6.03208 19.3565 6.01744 19.3077 6.01393C19.1361 6.00151 18.9854 6.1316 18.973 6.30313L18.7946 8.76478C18.7822 8.93624 18.9125 9.08669 19.0841 9.09912C19.2558 9.11154 19.4064 8.98138 19.4188 8.80985L19.5549 6.93227L22.074 9.03531C22.1393 9.08982 22.2215 9.10992 22.3007 9.0999C22.4633 9.10055 22.6021 8.97423 22.614 8.80985L22.7924 6.34827C22.8048 6.17681 22.6746 6.02629 22.5029 6.01393Z" fill="black"/>
<path fill-rule="evenodd" clip-rule="evenodd" d="M15.5275 10.7115H14.9858C14.9057 10.7115 14.846 10.6936 14.8068 10.6577C14.7677 10.6218 14.7555 10.5741 14.7702 10.5146L14.8533 10.1789C14.8891 10.0344 15.0068 9.96218 15.2064 9.96218H15.4468C15.5269 9.96218 15.5853 9.97896 15.622 10.0125C15.6587 10.046 15.6695 10.093 15.6545 10.1534L15.6325 10.2427L14.9423 10.4693L14.936 10.4948C14.9273 10.5297 14.93 10.5538 14.9439 10.567C14.9579 10.5803 14.9853 10.5868 15.0259 10.5868H15.5584L15.5275 10.7115ZM15.4913 10.1634C15.4966 10.1416 15.4947 10.1246 15.4854 10.1123C15.4724 10.0953 15.4473 10.0869 15.4104 10.0869H15.1479C15.0739 10.0869 15.0291 10.1185 15.0134 10.182L14.9765 10.3324L15.4913 10.1634ZM16.5621 10.0869H16.0719C16.0571 10.0869 16.0411 10.0918 16.0233 10.1017C16.0054 10.1117 15.9944 10.1251 15.9901 10.1421L15.9768 10.1959C15.9733 10.2101 15.9781 10.224 15.9914 10.2377C16.0046 10.2514 16.0237 10.2582 16.0483 10.2582H16.2886C16.3539 10.2582 16.4047 10.2748 16.4409 10.3078C16.4771 10.3409 16.4892 10.3815 16.4773 10.4296L16.4482 10.5472C16.4378 10.5887 16.4088 10.6265 16.3613 10.6605C16.3137 10.6945 16.2602 10.7115 16.2013 10.7115H15.6883L15.7192 10.5868H16.2094C16.2279 10.5868 16.2451 10.581 16.2606 10.5691C16.2765 10.5574 16.2877 10.5382 16.2943 10.5118L16.3083 10.4551C16.32 10.4079 16.2944 10.3843 16.2315 10.3843H16.0134C15.9345 10.3843 15.877 10.3677 15.8408 10.3347C15.8086 10.3054 15.7977 10.27 15.8079 10.2285L15.8318 10.1321C15.8451 10.0784 15.8742 10.0365 15.9192 10.0068C15.9638 9.97707 16.0202 9.96218 16.0877 9.96218H16.593L16.5621 10.0869ZM17.245 10.7115H16.877C16.7896 10.7115 16.7269 10.693 16.6892 10.6562C16.6515 10.6194 16.6392 10.5746 16.6522 10.5217L16.7442 10.1506C16.7586 10.092 16.7938 10.046 16.8495 10.0125C16.9053 9.97896 16.9751 9.96218 17.0589 9.96218H17.4286L17.3978 10.0869H17.028C17.007 10.0869 16.9839 10.0934 16.9584 10.1066C16.9258 10.1237 16.9066 10.144 16.9008 10.1676L16.8201 10.4934C16.8136 10.5198 16.8192 10.542 16.8369 10.56C16.8547 10.5778 16.879 10.5868 16.9098 10.5868H17.2758L17.245 10.7115ZM18.2851 10.5274C18.272 10.5803 18.2378 10.6242 18.1822 10.6591C18.1268 10.694 18.0596 10.7115 17.9807 10.7115H17.6849C17.6073 10.7115 17.549 10.6943 17.5101 10.6598C17.4712 10.6253 17.4584 10.5812 17.4717 10.5274L17.5685 10.1364C17.5825 10.0798 17.6145 10.0365 17.6643 10.0068C17.7143 9.97707 17.7829 9.96218 17.8704 9.96218H18.1662C18.2439 9.96218 18.3025 9.97798 18.3422 10.0097C18.3817 10.0413 18.395 10.0836 18.3819 10.1364L18.2851 10.5274ZM18.1312 10.4919L18.2091 10.1775C18.224 10.1171 18.1939 10.0869 18.1188 10.0869H17.858C17.7804 10.0869 17.7341 10.1171 17.7192 10.1775L17.6427 10.4863C17.6261 10.5533 17.6566 10.5868 17.7343 10.5868H17.995C18.0701 10.5868 18.1156 10.5552 18.1312 10.4919ZM18.6259 10.7115H18.4651L18.7126 9.71149H18.8735L18.6259 10.7115ZM19.7085 10.5203C19.6952 10.5741 19.66 10.6194 19.6028 10.6562C19.5456 10.693 19.4868 10.7115 19.4264 10.7115H19.1029C19.0388 10.7115 18.9861 10.6914 18.945 10.6513C18.9037 10.6112 18.8898 10.5642 18.9031 10.5103L18.9256 10.4197C18.944 10.3451 18.9801 10.2877 19.0338 10.2476C19.0875 10.2075 19.1532 10.1874 19.2308 10.1874H19.6282L19.6405 10.1378C19.6441 10.1237 19.6417 10.1121 19.6335 10.1031C19.6252 10.0942 19.6114 10.0888 19.5922 10.0869H19.008L19.0389 9.96218H19.6138C19.6853 9.96218 19.7383 9.97681 19.773 10.0061C19.8076 10.0354 19.818 10.0779 19.8043 10.1336L19.7085 10.5203ZM19.5476 10.5132L19.5774 10.3928C19.5907 10.339 19.5543 10.3121 19.468 10.3121H19.2443C19.1568 10.3121 19.1064 10.339 19.093 10.3928L19.0632 10.5132C19.0567 10.5396 19.0622 10.5585 19.0797 10.5698C19.0973 10.5812 19.13 10.5868 19.1781 10.5868H19.3981C19.4462 10.5868 19.4815 10.5812 19.504 10.5698C19.5265 10.5585 19.5411 10.5396 19.5476 10.5132ZM22.193 10.5004C22.1768 10.5656 22.1406 10.6171 22.0845 10.6549C22.0283 10.6926 21.9663 10.7115 21.8985 10.7115H21.5806C21.5201 10.7115 21.4703 10.694 21.4309 10.6591C21.3884 10.6213 21.3743 10.5736 21.3886 10.516L21.4791 10.1506C21.495 10.0864 21.5286 10.0389 21.58 10.0082C21.6313 9.97753 21.7008 9.96218 21.7883 9.96218H22.1636L22.2256 9.71149H22.3883L22.193 10.5004ZM22.031 10.4976L22.1127 10.1676C22.1195 10.1402 22.1147 10.1199 22.0982 10.1066C22.0817 10.0934 22.0581 10.0869 22.0273 10.0869H21.7629C21.6914 10.0869 21.6489 10.1147 21.635 10.1704L21.5516 10.5075C21.5457 10.5311 21.5505 10.5503 21.566 10.5649C21.5815 10.5795 21.5997 10.5868 21.6207 10.5868H21.9035C21.9306 10.5868 21.957 10.5786 21.9827 10.562C22.0083 10.5455 22.0244 10.5241 22.031 10.4976ZM23.1723 10.7115H22.6306C22.5505 10.7115 22.4908 10.6936 22.4517 10.6577C22.4125 10.6218 22.4002 10.5741 22.415 10.5146L22.4981 10.1789C22.5339 10.0344 22.6516 9.96218 22.8513 9.96218H23.0916C23.1717 9.96218 23.2301 9.97896 23.2668 10.0125C23.3035 10.046 23.3144 10.093 23.2994 10.1534L23.2772 10.2427L22.5871 10.4693L22.5807 10.4948C22.5721 10.5297 22.5747 10.5538 22.5887 10.567C22.6027 10.5803 22.63 10.5868 22.6707 10.5868H23.2031L23.1723 10.7115ZM23.1361 10.1634C23.1415 10.1416 23.1395 10.1246 23.1302 10.1123C23.1171 10.0953 23.0921 10.0869 23.0552 10.0869H22.7927C22.7187 10.0869 22.6739 10.1185 22.6582 10.182L22.6212 10.3324L23.1361 10.1634ZM24.5237 10.7115H24.1558C24.0683 10.7115 24.0057 10.693 23.9679 10.6562C23.9302 10.6194 23.9179 10.5746 23.931 10.5217L24.0229 10.1506C24.0374 10.092 24.0725 10.046 24.1283 10.0125C24.1841 9.97896 24.2538 9.96218 24.3377 9.96218H24.7074L24.6765 10.0869H24.3067C24.2858 10.0869 24.2626 10.0934 24.2371 10.1066C24.2046 10.1237 24.1854 10.144 24.1796 10.1676L24.0989 10.4934C24.0923 10.5198 24.0979 10.542 24.1157 10.56C24.1334 10.5778 24.1577 10.5868 24.1885 10.5868H24.5545L24.5237 10.7115ZM25.5639 10.5274C25.5508 10.5803 25.5165 10.6242 25.461 10.6591C25.4055 10.694 25.3384 10.7115 25.2594 10.7115H24.9636C24.886 10.7115 24.8277 10.6943 24.7888 10.6598C24.7499 10.6253 24.7371 10.5812 24.7505 10.5274L24.8472 10.1364C24.8613 10.0798 24.8933 10.0365 24.9431 10.0068C24.993 9.97707 25.0617 9.96218 25.1492 9.96218H25.445C25.5226 9.96218 25.5813 9.97798 25.6209 10.0097C25.6605 10.0413 25.6737 10.0836 25.6607 10.1364L25.5639 10.5274ZM25.41 10.4919L25.4879 10.1775C25.5028 10.1171 25.4727 10.0869 25.3975 10.0869H25.1368C25.0592 10.0869 25.0129 10.1171 24.9979 10.1775L24.9214 10.4863C24.9048 10.5533 24.9354 10.5868 25.013 10.5868H25.2737C25.3489 10.5868 25.3943 10.5552 25.41 10.4919ZM26.5443 10.7115H26.3816L26.5156 10.1704C26.5222 10.144 26.5188 10.1239 26.5055 10.1102C26.4923 10.0965 26.466 10.0897 26.4265 10.0897H26.1714C26.1282 10.0897 26.0973 10.0953 26.0784 10.1066C26.0597 10.118 26.0463 10.1392 26.0386 10.1704L25.9047 10.7115H25.7438L25.8816 10.1548C25.9135 10.0264 26.0205 9.96218 26.203 9.96218H26.4563C26.6386 9.96218 26.714 10.0264 26.6821 10.1548L26.5443 10.7115ZM27.6226 10.5004C27.6065 10.5656 27.5703 10.6171 27.5141 10.6549C27.4579 10.6926 27.396 10.7115 27.3282 10.7115H27.0102C26.9498 10.7115 26.8999 10.694 26.8605 10.6591C26.8181 10.6213 26.804 10.5736 26.8182 10.516L26.9087 10.1506C26.9246 10.0864 26.9583 10.0389 27.0096 10.0082C27.061 9.97753 27.1304 9.96218 27.2179 9.96218H27.5932L27.6553 9.71149H27.8179L27.6226 10.5004ZM27.4606 10.4976L27.5423 10.1676C27.5491 10.1402 27.5443 10.1199 27.5278 10.1066C27.5114 10.0934 27.4878 10.0869 27.457 10.0869H27.1926C27.1211 10.0869 27.0785 10.1147 27.0647 10.1704L26.9812 10.5075C26.9753 10.5311 26.9801 10.5503 26.9956 10.5649C27.0111 10.5795 27.0293 10.5868 27.0503 10.5868H27.3332C27.3603 10.5868 27.3866 10.5786 27.4123 10.562C27.4379 10.5455 27.4541 10.5241 27.4606 10.4976ZM28.6441 10.5189C28.6123 10.6473 28.5052 10.7115 28.3228 10.7115H28.0695C27.8871 10.7115 27.8118 10.6473 27.8436 10.5189L27.9814 9.96218H28.1423L28.0075 10.5061C27.9999 10.5373 28.0036 10.5581 28.0189 10.5684C28.0342 10.5788 28.0617 10.584 28.101 10.584H28.3562C28.3981 10.584 28.4282 10.5781 28.4465 10.5663C28.4649 10.5545 28.4778 10.5335 28.4853 10.5032L28.6192 9.96218H28.7819L28.6441 10.5189ZM29.4616 10.7115H29.0937C29.0062 10.7115 28.9435 10.693 28.9058 10.6562C28.8681 10.6194 28.8558 10.5746 28.8689 10.5217L28.9608 10.1506C28.9753 10.092 29.0104 10.046 29.0661 10.0125C29.1219 9.97896 29.1917 9.96218 29.2755 9.96218H29.6452L29.6144 10.0869H29.2447C29.2237 10.0869 29.2005 10.0934 29.175 10.1066C29.1424 10.1237 29.1232 10.144 29.1174 10.1676L29.0368 10.4934C29.0302 10.5198 29.0358 10.542 29.0536 10.56C29.0713 10.5778 29.0956 10.5868 29.1264 10.5868H29.4924L29.4616 10.7115ZM29.2996 10.7059L29.1723 10.8546L29.0547 10.8541L29.1795 10.7059H29.2996ZM30.4979 10.5203C30.4847 10.5741 30.4494 10.6194 30.3922 10.6562C30.335 10.693 30.2762 10.7115 30.2158 10.7115H29.8923C29.8282 10.7115 29.7755 10.6914 29.7344 10.6513C29.6931 10.6112 29.6792 10.5642 29.6925 10.5103L29.715 10.4197C29.7335 10.3451 29.7695 10.2877 29.8232 10.2476C29.8769 10.2075 29.9426 10.1874 30.0202 10.1874H30.4177L30.43 10.1378C30.4335 10.1237 30.4311 10.1121 30.4229 10.1031C30.4146 10.0942 30.4009 10.0888 30.3816 10.0869H29.7974L29.8283 9.96218H30.4032C30.4747 9.96218 30.5278 9.97681 30.5624 10.0061C30.5971 10.0354 30.6075 10.0779 30.5937 10.1336L30.4979 10.5203ZM30.3371 10.5132L30.3669 10.3928C30.3802 10.339 30.3437 10.3121 30.2574 10.3121H30.0338C29.9463 10.3121 29.8958 10.339 29.8825 10.3928L29.8527 10.5132C29.8461 10.5396 29.8516 10.5585 29.8692 10.5698C29.8867 10.5812 29.9195 10.5868 29.9675 10.5868H30.1876C30.2356 10.5868 30.2709 10.5812 30.2934 10.5698C30.316 10.5585 30.3305 10.5396 30.3371 10.5132ZM30.5048 9.84321L30.439 9.87014C30.4069 9.88523 30.3668 9.89277 30.3187 9.89277C30.2756 9.89277 30.2439 9.8862 30.2238 9.87293L30.1407 9.8276C30.131 9.82194 30.1145 9.81914 30.0911 9.81914C30.0553 9.81914 30.0272 9.82577 30.0067 9.83898L29.9177 9.87723L29.9398 9.78798L29.9644 9.77809C30.011 9.75917 30.0583 9.74973 30.1064 9.74973C30.1262 9.74973 30.1449 9.75116 30.1627 9.75396C30.1805 9.75682 30.1976 9.76203 30.2143 9.76957L30.3064 9.80782C30.3186 9.81348 30.3315 9.81628 30.3451 9.81628C30.3586 9.81628 30.3742 9.81296 30.3919 9.80639L30.5261 9.75682L30.5048 9.84321ZM31.5352 10.5274C31.5221 10.5803 31.4878 10.6242 31.4323 10.6591C31.3768 10.694 31.3096 10.7115 31.2308 10.7115H30.935C30.8574 10.7115 30.7991 10.6943 30.7601 10.6598C30.7212 10.6253 30.7085 10.5812 30.7217 10.5274L30.8186 10.1364C30.8326 10.0798 30.8645 10.0365 30.9144 10.0068C30.9643 9.97707 31.033 9.96218 31.1205 9.96218H31.4163C31.494 9.96218 31.5526 9.97798 31.5922 10.0097C31.6318 10.0413 31.6451 10.0836 31.632 10.1364L31.5352 10.5274ZM31.3813 10.4919L31.4591 10.1775C31.4741 10.1171 31.444 10.0869 31.3688 10.0869H31.1082C31.0305 10.0869 30.9842 10.1171 30.9692 10.1775L30.8928 10.4863C30.8762 10.5533 30.9067 10.5868 30.9843 10.5868H31.245C31.3202 10.5868 31.3656 10.5552 31.3813 10.4919Z" fill="black"/>
<path fill-rule="evenodd" clip-rule="evenodd" d="M20.7141 10.0869H20.2239C20.2091 10.0869 20.1931 10.0919 20.1752 10.1017C20.1574 10.1117 20.1464 10.1251 20.1421 10.1421L20.1288 10.1959C20.1253 10.2101 20.1301 10.224 20.1434 10.2378C20.1566 10.2514 20.1756 10.2582 20.2003 10.2582H20.4406C20.5059 10.2582 20.5567 10.2748 20.5928 10.3078C20.629 10.3409 20.6412 10.3815 20.6292 10.4296L20.6001 10.5473C20.5898 10.5888 20.5608 10.6265 20.5133 10.6606C20.4657 10.6945 20.4122 10.7116 20.3533 10.7116H19.8403L19.8712 10.5869H20.3614C20.3799 10.5869 20.397 10.581 20.4126 10.5692C20.4285 10.5574 20.4397 10.5383 20.4462 10.5118L20.4603 10.4551C20.4719 10.4079 20.4463 10.3843 20.3835 10.3843H20.1654C20.0865 10.3843 20.029 10.3678 19.9928 10.3347C19.9605 10.3055 19.9496 10.2701 19.9599 10.2285L19.9838 10.1322C19.9971 10.0784 20.0262 10.0366 20.0712 10.0068C20.1158 9.97711 20.1722 9.96222 20.2397 9.96222H20.745L20.7141 10.0869Z" fill="black"/>
<path d="M6.5498 5.0388L6.57526 4.88619H7.0692C7.0998 4.88619 7.1179 4.88561 7.12357 4.8845C7.12923 4.8834 7.13939 4.87715 7.15411 4.86584C7.18126 4.84099 7.1965 4.81276 7.19995 4.78108L7.20841 4.74036H6.84346C6.78688 4.74036 6.73882 4.72117 6.69917 4.68273C6.65958 4.64428 6.63979 4.5968 6.63979 4.54027L6.64317 4.4911L6.71278 4.05873C6.72294 3.99199 6.75237 3.93605 6.80101 3.89084C6.84971 3.84563 6.9046 3.823 6.96567 3.823H7.28987C7.41325 3.823 7.47491 3.88291 7.47491 4.00272L7.46983 4.04683L7.34931 4.81328C7.33798 4.8834 7.30601 4.93849 7.2534 4.97863C7.20079 5.01876 7.13373 5.0388 7.05227 5.0388H6.5498ZM6.79762 4.49448C6.79762 4.55667 6.82477 4.58776 6.87914 4.58776H7.14675C7.20333 4.58776 7.23725 4.55101 7.24858 4.4775L7.31194 4.07902L7.3176 4.04175C7.3176 4.0225 7.31083 4.00669 7.29722 3.99427C7.28368 3.98184 7.2661 3.9756 7.24461 3.9756H6.98664C6.91619 3.9756 6.87432 4.01007 6.86071 4.07902L6.79853 4.47724L6.79762 4.49448ZM7.57505 4.74036L7.68366 4.06549C7.69616 3.98184 7.72273 3.92135 7.76349 3.88401C7.7827 3.8671 7.80985 3.85266 7.84494 3.84082C7.88004 3.82892 7.91396 3.823 7.94678 3.823H8.03331L8.00961 3.97729H7.9346C7.87919 3.97729 7.84579 4.0078 7.83446 4.06888L7.72983 4.74036H7.57505ZM8.9228 3.823L8.81413 4.50638C8.80736 4.54593 8.7946 4.58125 8.77598 4.61235C8.75729 4.64344 8.73268 4.6703 8.70214 4.69287C8.67948 4.70874 8.6537 4.72058 8.62485 4.72852C8.59601 4.73639 8.56065 4.74036 8.51878 4.74036H8.27605C8.2308 4.74036 8.19655 4.73698 8.17337 4.73021C8.15019 4.72338 8.12837 4.71096 8.10806 4.69287C8.07069 4.65671 8.052 4.60812 8.052 4.54704V4.50638L8.16204 3.823H8.31707L8.20846 4.48544L8.20651 4.52811C8.20651 4.56571 8.23757 4.58437 8.29981 4.58437H8.54398C8.58474 4.58437 8.61326 4.57728 8.62967 4.56317C8.64608 4.54905 8.65715 4.5233 8.66281 4.48602L8.76973 3.823H8.9228ZM8.94488 5.0388L9.10101 4.05697C9.11228 3.98236 9.14204 3.92473 9.19009 3.88401C9.23821 3.84336 9.30071 3.823 9.37768 3.823H9.66625C9.73071 3.823 9.78163 3.83822 9.819 3.86879C9.85631 3.8993 9.875 3.94112 9.875 3.99427L9.87161 4.04683L9.8037 4.48628C9.79127 4.55979 9.75903 4.62028 9.70668 4.66829C9.65466 4.71636 9.59437 4.74036 9.52646 4.74036H9.14711L9.09789 5.0388H8.94488ZM9.18416 4.50775C9.18416 4.53065 9.19067 4.54964 9.2037 4.56486C9.21672 4.58015 9.23339 4.58776 9.25377 4.58776H9.54573C9.5706 4.58776 9.59241 4.5793 9.6111 4.56232C9.62972 4.54535 9.6419 4.5233 9.64756 4.49617L9.71632 4.06211L9.71717 4.03668C9.71717 3.99596 9.69451 3.9756 9.64926 3.9756H9.37598C9.30468 3.9756 9.2634 4.00669 9.25207 4.06888L9.18475 4.48232L9.18416 4.50775ZM10.2196 4.74036C10.1551 4.74036 10.1036 4.72338 10.0651 4.68949C10.0266 4.6556 10.0074 4.60981 10.0074 4.55218L10.0108 4.51315L10.0872 4.03837C10.0985 3.97053 10.1282 3.91764 10.1763 3.87978C10.2244 3.84193 10.2869 3.823 10.3639 3.823H10.6457C10.7113 3.823 10.7633 3.83881 10.8018 3.87048C10.8403 3.9021 10.8595 3.9462 10.8595 4.00272L10.8555 4.03837L10.7797 4.51484C10.7695 4.5793 10.7379 4.63297 10.6847 4.67596C10.6315 4.71889 10.5704 4.74036 10.5014 4.74036H10.2196ZM10.1687 4.49955C10.1687 4.55836 10.2004 4.58776 10.2637 4.58776H10.5078C10.5452 4.58776 10.574 4.57872 10.5944 4.56063C10.6148 4.54255 10.6278 4.51315 10.6335 4.47243L10.6971 4.08585L10.6982 4.05697C10.6982 4.00272 10.6677 3.9756 10.6066 3.9756H10.3599C10.2875 3.9756 10.2445 4.01235 10.2309 4.08585L10.1698 4.46566L10.1687 4.49955Z" fill="black"/>
</svg>
